<svg xmlns="http://www.w3.org/2000/svg" viewBox="0 0 512 512">
  <g transform="translate(16 82) scale(1.2)">
    <path
      d="M86 100c18-64 58-97 122-97 34 0 67 9 94 26 17 10 32 23 45 39 22 28 33 62 33 100v16c0 22-18 40-40 40H151c-22 0-47-4-73-12l-25-8-23 10c-27 11-57-9-57-38 0-26 22-46 49-45h57l7-31Z"
      fill="#fff"
      stroke="#fff"
      stroke-linejoin="round"
      stroke-width="12"
    />
    <path
      d="M105 123c16-58 52-87 109-87 31 0 61 8 86 23 14 8 27 19 38 33 19 24 29 54 29 88v8c0 11-9 20-20 20H180c-19 0-40-3-62-10l-24-8-18 8c-20 8-42-7-42-29 0-20 17-36 37-36h34Z"
      fill="#252525"
    />
    <path
      d="M102 122c14-49 45-74 94-74 28 0 54 7 77 20 13 7 24 17 34 29 17 21 25 46 25 76v7"
      fill="none"
      stroke="#fff"
      stroke-linecap="round"
      stroke-linejoin="round"
      stroke-width="12"
    />
    <path
      d="M56 128c28-7 60-6 97 4l39 11c16 5 33 5 49 2l55-11c22-4 44 0 64 13l23 14-30 8c-22 6-45 8-68 7l-81-2c-17 0-33-3-49-9l-83-30c-7-3-12-6-16-10Z"
      fill="#fff"
    />
    <path
      d="M273 53c7 0 13 6 13 13 0 8-6 13-13 13s-13-5-13-13c0-7 6-13 13-13Z"
      fill="#252525"
    />
    <path d="M283 87 263 183" fill="none" stroke="#252525" stroke-linecap="round" stroke-width="18" />
    <path d="M290 182h44l-14-10-14 4-16 6Z" fill="#fff" />
    <path d="m298 177 3 7 7 1-5 4 2 7-7-4-6 4 2-7-5-4 7-1 2-7Z" fill="#252525" />
  </g>
</svg>
